<?xml version="1.0" ?><svg fill="none" height="48" viewBox="0 0 48 48" width="48" xmlns="http://www.w3.org/2000/svg"><rect fill="white" fill-opacity="0.01" height="48" width="48"/><path d="M48 0H0V48H48V0Z" fill="white" fill-opacity="0.01"/><circle cx="24" cy="24" r="20" stroke="black" stroke-linejoin="round" stroke-width="4"/><path d="M24 44C18.4772 44 14 39.5228 14 34C14 28.4772 18.4772 24 24 24C29.5228 24 34 19.5228 34 14C34 8.47715 29.5228 4 24 4" stroke="black" stroke-linecap="round" stroke-linejoin="round" stroke-width="4"/><path d="M44 24C44 29.5228 39.5228 34 34 34C28.4772 34 24 29.5228 24 24C24 18.4772 19.5228 14 14 14C8.47715 14 4 18.4772 4 24" stroke="black" stroke-linecap="round" stroke-linejoin="round" stroke-width="4"/></svg>